<?xml version="1.0" encoding="UTF-8" standalone="no"?><!-- Generator: Gravit.io --><svg xmlns="http://www.w3.org/2000/svg" xmlns:xlink="http://www.w3.org/1999/xlink" style="isolation:isolate" viewBox="0 0 1000 1000" width="1000pt" height="1000pt"><defs><clipPath id="_clipPath_0XE9TSdTn2WQBJjp1SMaXYDcdS1ebjYi"><rect width="1000" height="1000"/></clipPath></defs><g clip-path="url(#_clipPath_0XE9TSdTn2WQBJjp1SMaXYDcdS1ebjYi)"><g style="isolation:isolate"><path d=" M 483.742 419 L 330.156 279.131 L 127.865 326.358 L 213.427 137.067 L 106 -40.729 L 312.467 -17.849 L 448.364 -174.96 L 490.405 28.472 L 681.822 109.168 L 501.338 212.016 L 483.742 419 Z " fill="rgb(0,38,255)"/><rect x="622" y="-47" width="378" height="473.312" transform="matrix(1,0,0,1,0,0)" fill="rgb(38,185,151)"/><ellipse vector-effect="non-scaling-stroke" cx="832.9999999999998" cy="727.2493573264778" rx="305.00000000000017" ry="287.75064267352207" fill="rgb(0,166,217)"/><polygon points="248.797,802.802,-59.405,824.625,-232.405,568.625,-97.203,290.802,211,268.98,384,524.98" fill="rgb(0,178,181)"/><polygon points="33.755,951.831,473.403,486,657,1099.661" fill="rgb(28,19,113)"/></g><defs><filter id="xkGjNX82FLwaNDSLa1Zm8fdLHHuTZuRD" x="-200%" y="-200%" width="400%" height="400%" filterUnits="objectBoundingBox" color-interpolation-filters="sRGB"><feGaussianBlur xmlns="http://www.w3.org/2000/svg" in="SourceGraphic" stdDeviation="4.293609062839028"/><feOffset xmlns="http://www.w3.org/2000/svg" dx="0" dy="0" result="pf_100_offsetBlur"/><feFlood xmlns="http://www.w3.org/2000/svg" flood-color="#004BF9" flood-opacity="1"/><feComposite xmlns="http://www.w3.org/2000/svg" in2="pf_100_offsetBlur" operator="in" result="pf_100_dropShadow"/><feBlend xmlns="http://www.w3.org/2000/svg" in="SourceGraphic" in2="pf_100_dropShadow" mode="normal"/></filter></defs><g filter="url(#xkGjNX82FLwaNDSLa1Zm8fdLHHuTZuRD)"><path d=" M 683.51 285.639 L 652.487 285.639 L 652.487 554.818 L 683.51 554.818 L 683.51 285.639 Z  M 938.372 265.116 C 946.842 279.552 920.34 286.459 858.668 285.639 L 858.668 285.639 Q 835.281 285.639 820.963 294.945 L 820.963 294.945 L 820.963 294.945 Q 806.645 304.252 806.645 324.297 L 806.645 324.297 L 806.645 503.273 L 806.645 503.273 Q 806.645 530 820.963 542.409 L 820.963 542.409 L 820.963 542.409 Q 835.281 554.818 858.668 554.818 L 858.668 554.818 C 913.223 550.584 939.99 557.624 938.372 575.341 L 511.216 575.341 Q 505.681 562.348 518.11 555.72 Q 544.625 549.091 568.488 554.818 L 568.488 554.818 Q 591.874 554.818 606.192 542.409 L 606.192 542.409 L 606.192 542.409 Q 620.51 530 620.51 503.273 L 620.51 503.273 L 620.51 308.547 L 474.466 534.773 L 449.648 534.773 L 265.422 379.183 L 265.422 443.137 L 265.422 443.137 Q 265.422 472.251 279.74 494.921 L 279.74 494.921 L 279.74 494.921 C 287.647 510.444 300.255 522.336 316.967 530 C 369.792 541.634 430.805 559.252 415.762 575.341 L 84.06 575.341 Q 83.757 559.008 93.871 554.818 C 121.51 543.368 158.299 543.301 182.855 530 L 182.855 530 L 182.855 530 Q 205.764 517.591 220.082 494.921 L 220.082 494.921 L 220.082 494.921 Q 234.4 472.251 234.4 443.137 L 234.4 443.137 L 234.4 393.024 L 234.4 393.024 Q 234.4 361.524 211.491 336.468 L 211.491 336.468 L 211.491 336.468 Q 188.582 311.411 153.264 298.525 L 153.264 298.525 L 153.264 298.525 C 93.397 293.921 68.327 282.851 77.856 265.116 L 386.649 265.116 L 533.17 389.683 L 613.351 265.116 L 938.372 265.116 Z  M 454.421 494.682 L 466.352 494.682 L 466.352 464.614 L 256.354 286.593 L 208.627 286.593 L 454.421 494.682 Z " fill="rgb(13,13,13)"/></g></g></svg>