<?xml version="1.0" encoding="UTF-8" standalone="no"?><!-- Generator: Gravit.io --><svg xmlns="http://www.w3.org/2000/svg" xmlns:xlink="http://www.w3.org/1999/xlink" style="isolation:isolate" viewBox="0 0 4000 4000" width="4000pt" height="4000pt"><defs><clipPath id="_clipPath_7HP0faKGo41Xrkrbg75BCNmtng4GwsD4"><rect width="4000" height="4000"/></clipPath></defs><g clip-path="url(#_clipPath_7HP0faKGo41Xrkrbg75BCNmtng4GwsD4)"><rect width="4000" height="4000" style="fill:rgb(210,125,40)"/><g style="isolation:isolate"><rect x="-723.919" y="-544.896" width="193.837" height="5089.792" transform="matrix(0.888,0.46,-0.46,0.888,850.123,512.977)" fill="rgb(32,32,32)"/><rect x="501.081" y="-544.896" width="193.837" height="5089.792" transform="matrix(0.888,0.46,-0.46,0.888,987.573,-50.814)" fill="rgb(32,32,32)"/><rect x="1758.382" y="-544.896" width="193.837" height="5089.792" transform="matrix(0.888,0.46,-0.46,0.888,1128.647,-629.47)" fill="rgb(32,32,32)"/><rect x="3160.382" y="-544.849" width="193.837" height="5089.792" transform="matrix(0.888,0.46,-0.46,0.888,1285.979,-1274.718)" fill="rgb(32,32,32)"/><rect x="4417.682" y="-544.849" width="193.837" height="5089.792" transform="matrix(0.888,0.46,-0.46,0.888,1427.053,-1853.375)" fill="rgb(32,32,32)"/></g><path d=" M 2000.931 3294.598 L 1959 3311 L 1900 3285 L 1854.653 3327 L 1854.653 3271.133 L 1840.739 3217 L 1807 3193.75 L 1761.156 3086 L 1761.156 3026.823 L 1734 3011 L 1720 2912 L 1720 2864 L 1689.163 2838.703 L 1665 2792 L 1665 2733 L 1636.071 2699.973 L 1591.73 2609.248 L 1573.819 2506.833 L 1529.345 2454.074 L 1544 2402 L 1510.28 2371.276 L 1478 2314.116 L 1484.696 2265 L 1459.113 2237.574 L 1433 2191 L 1427.343 2154.56 L 1415.892 2140 L 1415.892 2124.637 L 1402.81 2090.455 L 1382.77 2055.792 L 1382.77 2038.088 L 1373.334 1991 L 1351.915 1966.667 L 1337 1929 L 1341 1902.667 L 1326.34 1890.635 L 1309.134 1807 L 1291.929 1800.719 L 1261 1739.231 L 1244.763 1677.473 L 1226.677 1652.539 L 1224.428 1624.336 L 1226.677 1599 L 1204.348 1571.867 L 1193 1513 L 1158 1470 L 1154 1422.842 L 1131.535 1381.604 L 1116 1370.136 L 1102.549 1305.864 L 1092.823 1268 L 1074 1242.028 L 1067.382 1213.971 L 1064.584 1185 L 1047.788 1162.772 L 1041 1131 L 1023 1111 L 1019 1073 L 1009.902 1063.881 L 1009.902 1024 L 991.153 1014.892 L 989 1041 L 972.376 1034.011 L 963 1054 L 980 1086 L 963 1137 L 977 1159 L 980 1257 L 971.051 1335 L 987.444 1427.945 L 977 1470 L 998 1513 L 993.844 1595.263 L 995.845 1647.572 L 995.845 1647.572 L 989 1675 L 998 1763 L 989 1838 L 995.845 1879.333 L 1002 1957 L 989 1982 L 1008 2023.333 L 994 2043 L 995.845 2091.333 L 1008 2163 L 1008 2191 L 989 2240 L 1008 2259.333 L 995.845 2358 L 1008 2382 L 995.845 2464.25 L 994 2493 L 998 2542.756 L 995.845 2594.75 L 992 2606 L 1002 2617 L 995.845 2644 L 989 2661 L 995.845 2711.5 L 995.845 2740.25 L 998 2749.75 L 995.845 2768.25 L 995.845 2783.5 L 992 2792 L 995.845 2809.75 L 994 2816.75 L 995.845 2837.5 L 992 2847 L 998 2858 L 995.845 2888.5 L 995.845 2897.75 L 992 2906 L 995.845 2926 L 998 2929 L 995.845 2948 L 992 2956 L 995.845 2984 L 998 2991.5 L 995.845 3001.5 L 992 3005 L 1002 3068.667 L 995.845 3092.5 L 992 3095 L 998 3138 L 998 3162 L 995.845 3193.75 L 998 3199 L 995.845 3212.75 L 992 3217 L 995.845 3238.75 L 995.845 3250.25 L 992 3273 L 995.845 3294.598 L 980 3300 L 929 3305 L 898.5 3336 L 879 3311 L 817 3311 L 789 3347 L 649 3415 L 717.799 3294.598 L 711 3229 L 727 3095 L 717.799 3068.667 L 711 2950 L 717.799 2935.333 L 727 2892.667 L 717.799 2874.667 L 717.799 2824 L 711 2714 L 701 2686 L 717.799 2654 L 727 2621 L 711 2577 L 717.799 2564 L 723 2506.833 L 711 2465 L 717.799 2424.667 L 711 2397 L 717.799 2344.667 L 727 2309 L 717.799 2259.333 L 723 2191 L 711 1976 L 717.799 1966.667 L 717.799 1902.667 L 727 1789 L 717.799 1745.333 L 727 1659 L 717.799 1636.364 L 717.799 1530.682 L 727 1462 L 717.799 1388.636 L 727 1301.136 L 711 1251 L 717.799 1213.636 L 727 1172 L 701 1036 L 736 969 L 711 870 L 727 805 L 717.799 785 L 701 685 L 769.318 705.402 L 817 699 L 868 713 L 956 705.402 L 1019 713 L 1078 685 L 1116 713 L 1143 741 L 1182.596 760 L 1216 823.061 L 1226.677 873.465 L 1226.677 900 L 1264.902 943 L 1294.839 1048.915 L 1294.839 1086 L 1355.734 1205.661 L 1382 1234 L 1416.034 1360.874 L 1470 1540 L 1506 1566 L 1529.345 1652.539 L 1529.345 1690 L 1570 1734.063 L 1591.73 1813.119 L 1612.866 1852 L 1627.745 1905.822 L 1627.745 1929 L 1652.861 1970.471 L 1680 1991 L 1691.238 2069.255 L 1734 2140 L 1756.109 2236.236 L 1756.109 2259.333 L 1800 2328 L 1807 2402 L 1840.739 2454.074 L 1865.897 2518.832 L 1884 2545 L 1900 2621 L 1915 2643 L 1923 2654 L 1923 2686 L 1941.203 2712.671 L 1935 2721 L 1972.366 2785 L 1983.265 2820.939 L 1991.145 2841.223 L 1999.026 2841.223 L 2000.931 3294.598 L 2000.931 3294.598 Z  M 1999.026 2841.223 L 2000.931 3294.598 L 2042.862 3311 L 2101.862 3285 L 2147.209 3327 L 2147.209 3271.133 L 2161.123 3217 L 2194.862 3193.75 L 2240.706 3086 L 2240.706 3026.823 L 2267.862 3011 L 2281.862 2912 L 2281.862 2864 L 2312.699 2838.703 L 2336.862 2792 L 2336.862 2733 L 2365.791 2699.973 L 2410.132 2609.248 L 2428.044 2506.833 L 2472.517 2454.074 L 2457.862 2402 L 2491.582 2371.276 L 2523.862 2314.116 L 2517.166 2265 L 2542.75 2237.574 L 2568.862 2191 L 2574.519 2154.56 L 2585.97 2140 L 2585.97 2124.637 L 2599.052 2090.455 L 2619.092 2055.792 L 2619.092 2038.088 L 2628.528 1991 L 2649.947 1966.667 L 2664.862 1929 L 2660.862 1902.667 L 2675.522 1890.635 L 2692.728 1807 L 2709.933 1800.719 L 2740.862 1739.231 L 2757.099 1677.473 L 2775.185 1652.539 L 2777.434 1624.336 L 2775.185 1599 L 2797.514 1571.867 L 2808.862 1513 L 2843.862 1470 L 2847.862 1422.842 L 2870.327 1381.604 L 2885.862 1370.136 L 2899.313 1305.864 L 2909.039 1268 L 2927.862 1242.028 L 2934.48 1213.971 L 2937.278 1185 L 2954.074 1162.772 L 2960.862 1131 L 2978.862 1111 L 2982.862 1073 L 2991.96 1063.881 L 2991.96 1024 L 3010.709 1014.892 L 3012.862 1041 L 3029.486 1034.011 L 3038.862 1054 L 3021.862 1086 L 3038.862 1137 L 3024.862 1159 L 3021.862 1257 L 3030.811 1335 L 3014.418 1427.945 L 3024.862 1470 L 3003.862 1513 L 3008.018 1595.263 L 3006.017 1647.572 L 3006.017 1647.572 L 3012.862 1675 L 3003.862 1763 L 3012.862 1838 L 3006.017 1879.333 L 2999.862 1957 L 3012.862 1982 L 2993.862 2023.333 L 3007.862 2043 L 3006.017 2091.333 L 2993.862 2163 L 2993.862 2191 L 3012.862 2240 L 2993.862 2259.333 L 3006.017 2358 L 2993.862 2382 L 3006.017 2464.25 L 3007.862 2493 L 3003.862 2542.756 L 3006.017 2594.75 L 3009.862 2606 L 2999.862 2617 L 3006.017 2644 L 3012.862 2661 L 3006.017 2711.5 L 3006.017 2740.25 L 3003.862 2749.75 L 3006.017 2768.25 L 3006.017 2783.5 L 3009.862 2792 L 3006.017 2809.75 L 3007.862 2816.75 L 3006.017 2837.5 L 3009.862 2847 L 3003.862 2858 L 3006.017 2888.5 L 3006.017 2897.75 L 3009.862 2906 L 3006.017 2926 L 3003.862 2929 L 3006.017 2948 L 3009.862 2956 L 3006.017 2984 L 3003.862 2991.5 L 3006.017 3001.5 L 3009.862 3005 L 2999.862 3068.667 L 3006.017 3092.5 L 3009.862 3095 L 3003.862 3138 L 3003.862 3162 L 3006.017 3193.75 L 3003.862 3199 L 3006.017 3212.75 L 3009.862 3217 L 3006.017 3238.75 L 3006.017 3250.25 L 3009.862 3273 L 3006.017 3294.598 L 3021.862 3300 L 3072.862 3305 L 3103.362 3336 L 3122.862 3311 L 3184.862 3311 L 3212.862 3347 L 3352.862 3415 L 3284.063 3294.598 L 3290.862 3229 L 3274.862 3095 L 3284.063 3068.667 L 3290.862 2950 L 3284.063 2935.333 L 3274.862 2892.667 L 3284.063 2874.667 L 3284.063 2824 L 3290.862 2714 L 3300.862 2686 L 3284.063 2654 L 3274.862 2621 L 3290.862 2577 L 3284.063 2564 L 3278.862 2506.833 L 3290.862 2465 L 3284.063 2424.667 L 3290.862 2397 L 3284.063 2344.667 L 3274.862 2309 L 3284.063 2259.333 L 3278.862 2191 L 3290.862 1976 L 3284.063 1966.667 L 3284.063 1902.667 L 3274.862 1789 L 3284.063 1745.333 L 3274.862 1659 L 3284.063 1636.364 L 3284.063 1530.682 L 3274.862 1462 L 3284.063 1388.636 L 3274.862 1301.136 L 3290.862 1251 L 3284.063 1213.636 L 3274.862 1172 L 3300.862 1036 L 3265.862 969 L 3290.862 870 L 3274.862 805 L 3284.063 785 L 3300.862 685 L 3232.544 705.402 L 3184.862 699 L 3133.862 713 L 3045.862 705.402 L 2982.862 713 L 2923.862 685 L 2885.862 713 L 2858.862 741 L 2819.266 760 L 2785.862 823.061 L 2775.185 873.465 L 2775.185 900 L 2736.96 943 L 2707.023 1048.915 L 2707.023 1086 L 2646.128 1205.661 L 2619.862 1234 L 2585.828 1360.874 L 2531.862 1540 L 2495.862 1566 L 2472.517 1652.539 L 2472.517 1690 L 2431.862 1734.063 L 2410.132 1813.119 L 2388.996 1852 L 2374.117 1905.822 L 2374.117 1929 L 2349.001 1970.471 L 2321.862 1991 L 2310.624 2069.255 L 2267.862 2140 L 2245.753 2236.236 L 2245.753 2259.333 L 2201.862 2328 L 2194.862 2402 L 2161.123 2454.074 L 2135.965 2518.832 L 2117.862 2545 L 2101.862 2621 L 2086.862 2643 L 2078.862 2654 L 2078.862 2686 L 2060.659 2712.671 L 2066.862 2721 L 2029.496 2785 L 2018.598 2820.939 L 2010.717 2841.223 Q 2010.369 2841.322 1999.026 2841.223 Z " fill-rule="evenodd" fill="rgb(155,32,32)"/></g></svg>